<?xml version="1.0" encoding="UTF-8"?>
<svg width="512px" height="512px" viewBox="0 0 512 512" version="1.1" xmlns="http://www.w3.org/2000/svg" xmlns:xlink="http://www.w3.org/1999/xlink">
    <!-- Generator: Sketch 39.1 (31720) - http://www.bohemiancoding.com/sketch -->
    <title>512 - Play Store</title>
    <desc>Created with Sketch.</desc>
    <defs>
        <rect id="path-1" x="36" y="18" width="10" height="34" rx="5"></rect>
        <mask id="mask-2" maskContentUnits="userSpaceOnUse" maskUnits="objectBoundingBox" x="0" y="0" width="10" height="34" fill="white">
            <use xlink:href="#path-1"></use>
        </mask>
        <rect id="path-3" x="36" y="18" width="10" height="34" rx="5"></rect>
        <mask id="mask-4" maskContentUnits="userSpaceOnUse" maskUnits="objectBoundingBox" x="0" y="0" width="10" height="34" fill="white">
            <use xlink:href="#path-3"></use>
        </mask>
        <rect id="path-5" x="84" y="5.68434189e-14" width="54" height="18"></rect>
        <mask id="mask-6" maskContentUnits="userSpaceOnUse" maskUnits="objectBoundingBox" x="0" y="0" width="54" height="18" fill="white">
            <use xlink:href="#path-5"></use>
        </mask>
        <rect id="path-7" x="122" y="40" width="12" height="12"></rect>
        <mask id="mask-8" maskContentUnits="userSpaceOnUse" maskUnits="objectBoundingBox" x="0" y="0" width="12" height="12" fill="white">
            <use xlink:href="#path-7"></use>
        </mask>
        <rect id="path-9" x="0" y="8.52651283e-14" width="14" height="61"></rect>
        <mask id="mask-10" maskContentUnits="userSpaceOnUse" maskUnits="objectBoundingBox" x="0" y="0" width="14" height="61" fill="white">
            <use xlink:href="#path-9"></use>
        </mask>
    </defs>
    <g id="Page-1" stroke="none" stroke-width="1" fill="none" fill-rule="evenodd">
        <g id="512---Play-Store">
            <g id="Controller" transform="translate(147.247998, 147.247998) rotate(-45.000000) translate(-147.247998, -147.247998) translate(35.747998, 104.247998)" stroke="#000000">
                <path d="M111,8.52651283e-14 C111,8.52651283e-14 144.374035,8.52651283e-14 172.648713,8.52651283e-14 C212.9025,4.16485453 215.621449,17.8107281 219.94112,25.6895332 C226.455875,37.5720299 219.94112,54.6105461 208.707584,70.8160553 C197.474049,87.0215645 184.492477,85.8657498 172.648716,85.8657455 C160.804955,85.8657413 147.017837,59.3465473 147.017837,59.3465473 L111,59.3465462" id="Path"></path>
                <path d="M0,2.84217094e-14 C0,2.84217094e-14 33.3740349,2.84217094e-14 61.6487131,2.84217094e-14 C101.9025,4.16485453 104.621449,17.8107281 108.94112,25.6895332 C115.455875,37.5720299 108.94112,54.6105461 97.7075844,70.8160553 C86.4740486,87.0215645 73.4924771,85.8657498 61.648716,85.8657455 C49.8049549,85.8657413 36.0178369,59.3465473 36.0178369,59.3465473 L0,59.3465462" id="Path-Copy" transform="translate(55.766298, 42.941880) scale(-1, 1) translate(-55.766298, -42.941880) "></path>
                <use id="Rectangle" mask="url(#mask-2)" stroke-width="2" xlink:href="#path-1"></use>
                <use id="Rectangle-Copy" mask="url(#mask-4)" stroke-width="2" transform="translate(41.000000, 35.000000) rotate(90.000000) translate(-41.000000, -35.000000) " xlink:href="#path-3"></use>
                <circle id="Oval" cx="183" cy="24" r="6"></circle>
                <circle id="Oval-Copy" cx="183" cy="46" r="6"></circle>
                <circle id="Oval-Copy-2" cx="195" cy="35" r="6"></circle>
                <circle id="Oval-Copy-3" cx="171" cy="35" r="6"></circle>
                <circle id="Oval-Copy-4" cx="97" cy="46" r="6"></circle>
                <use id="Rectangle-2" mask="url(#mask-6)" stroke-width="2" xlink:href="#path-5"></use>
                <use id="Rectangle-3" mask="url(#mask-8)" stroke-width="2" xlink:href="#path-7"></use>
            </g>
            <rect id="Rectangle-5" stroke="#000000" x="158" y="374" width="170" height="22"></rect>
            <path d="M313.416667,374.5 L313.416667,387" id="Line-Copy-10" stroke="#000000" stroke-linecap="square"></path>
            <path d="M298.416667,374.5 L298.416667,387" id="Line-Copy-9" stroke="#000000" stroke-linecap="square"></path>
            <path d="M283.416667,374.5 L283.416667,387" id="Line-Copy-8" stroke="#000000" stroke-linecap="square"></path>
            <path d="M268.416667,374.5 L268.416667,387" id="Line-Copy-7" stroke="#000000" stroke-linecap="square"></path>
            <path d="M253.416667,374.5 L253.416667,387" id="Line-Copy-6" stroke="#000000" stroke-linecap="square"></path>
            <path d="M238.416667,374.5 L238.416667,387" id="Line-Copy-5" stroke="#000000" stroke-linecap="square"></path>
            <path d="M223.416667,374.5 L223.416667,387" id="Line-Copy-4" stroke="#000000" stroke-linecap="square"></path>
            <path d="M208.416667,374.5 L208.416667,387" id="Line-Copy-3" stroke="#000000" stroke-linecap="square"></path>
            <path d="M193.416667,374.5 L193.416667,387" id="Line-Copy-2" stroke="#000000" stroke-linecap="square"></path>
            <path d="M178.416667,374.5 L178.416667,387" id="Line-Copy" stroke="#000000" stroke-linecap="square"></path>
            <path d="M163.416667,374.5 L163.416667,387" id="Line" stroke="#000000" stroke-linecap="square"></path>
            <path d="M320.416667,374.5 L320.416667,382" id="Line-Copy-21" stroke="#000000" stroke-linecap="square"></path>
            <path d="M305.416667,374.5 L305.416667,382" id="Line-Copy-20" stroke="#000000" stroke-linecap="square"></path>
            <path d="M290.416667,374.5 L290.416667,382" id="Line-Copy-19" stroke="#000000" stroke-linecap="square"></path>
            <path d="M275.416667,374.5 L275.416667,382" id="Line-Copy-18" stroke="#000000" stroke-linecap="square"></path>
            <path d="M260.416667,374.5 L260.416667,382" id="Line-Copy-17" stroke="#000000" stroke-linecap="square"></path>
            <path d="M245.416667,374.5 L245.416667,382" id="Line-Copy-16" stroke="#000000" stroke-linecap="square"></path>
            <path d="M230.416667,374.5 L230.416667,382" id="Line-Copy-15" stroke="#000000" stroke-linecap="square"></path>
            <path d="M215.416667,374.5 L215.416667,382" id="Line-Copy-14" stroke="#000000" stroke-linecap="square"></path>
            <path d="M200.416667,374.5 L200.416667,382" id="Line-Copy-13" stroke="#000000" stroke-linecap="square"></path>
            <path d="M185.416667,374.5 L185.416667,382" id="Line-Copy-12" stroke="#000000" stroke-linecap="square"></path>
            <path d="M170.416667,374.5 L170.416667,382" id="Line-Copy-11" stroke="#000000" stroke-linecap="square"></path>
            <rect id="Rectangle-4" stroke="#000000" x="106" y="294" width="300" height="150"></rect>
            <rect id="Rectangle-6" stroke="#000000" x="196" y="325" width="13" height="13"></rect>
            <path d="M123.955561,373.333333 L304,373.333333" id="Line-Copy-10" stroke="#000000" stroke-linecap="square"></path>
            <circle id="Oval-2" stroke="#000000" cx="151" cy="356" r="4"></circle>
            <g id="Group" transform="translate(336.819805, 343.819805) rotate(45.000000) translate(-336.819805, -343.819805) translate(329.819805, 305.819805)" stroke="#000000">
                <use id="Rectangle-7" mask="url(#mask-10)" stroke-width="2" xlink:href="#path-9"></use>
                <polygon id="Triangle" transform="translate(7.000000, 69.000000) rotate(180.000000) translate(-7.000000, -69.000000) " points="7 62 14 76 5.68434189e-14 76"></polygon>
            </g>
            <g id="Group-2" transform="translate(370.007042, 113.092921) rotate(-30.000000) translate(-370.007042, -113.092921) translate(329.007042, -28.907079)" stroke="#000000">
                <ellipse id="Oval-3" cx="41" cy="221" rx="41" ry="63"></ellipse>
                <path d="M39.4027778,158.5 L39.4027778,201" id="Line" stroke-linecap="square"></path>
                <path d="M80,200.388928 L2,200.388928" id="Line-Copy-22" stroke-linecap="square"></path>
                <path d="M41.1595183,158.242008 C19.8873778,117.996731 20.5986709,122.569335 16.4579229,104.564702 C12.3171749,86.5600687 39.1018449,65.2911016 56.3030982,84.9279018 C73.5043515,104.564702 49.1361745,118.866795 36.8441219,104.282089 C24.5520693,89.6973829 7.11901148,67.1264948 7.11901148,52.6529288 C7.11901148,38.1793627 10.7167628,27.427389 10.7167628,27.427389 L24.9800008,0.905576823" id="Path-2"></path>
            </g>
            <path d="M144.5,364.5 L157.538404,364.5" id="Line" stroke="#000000" stroke-linecap="square"></path>
            <path d="M151.5,360.5 L151.5,366.5" id="Line" stroke="#000000" stroke-linecap="square"></path>
            <path d="M148,374 L151.25,366.5" id="Line-Copy-23" stroke="#000000" stroke-linecap="square"></path>
            <path d="M155,374 L151.25,366.5" id="Line-Copy-24" stroke="#000000" stroke-linecap="square"></path>
            <rect id="Rectangle-8" stroke="#000000" x="261" y="352" width="12" height="22"></rect>
            <rect id="Rectangle-8-Copy" stroke="#000000" transform="translate(267.000000, 350.500000) scale(1, -1) translate(-267.000000, -350.500000) " x="259" y="349" width="16" height="3"></rect>
            <text id="?" font-family="TimesNewRomanPSMT, Times New Roman" font-size="12" font-weight="normal" fill="#000000">
                <tspan x="200.336914" y="336">?</tspan>
            </text>
        </g>
    </g>
</svg>